<?xml version="1.0" encoding="UTF-8" standalone="no"?>
<!-- Created with Inkscape (http://www.inkscape.org/) -->

<svg
   width="25"
   height="22.23"
   viewBox="0 0 6.6145832 5.8816874"
   version="1.1"
   id="svg1"
   inkscape:version="1.3.2 (091e20e, 2023-11-25, custom)"
   sodipodi:docname="btn_home.svg"
   xmlns:inkscape="http://www.inkscape.org/namespaces/inkscape"
   xmlns:sodipodi="http://sodipodi.sourceforge.net/DTD/sodipodi-0.dtd"
   xmlns="http://www.w3.org/2000/svg"
   xmlns:svg="http://www.w3.org/2000/svg">
  <sodipodi:namedview
     id="namedview1"
     pagecolor="#000000"
     bordercolor="#000000"
     borderopacity="0.25"
     inkscape:showpageshadow="2"
     inkscape:pageopacity="0.0"
     inkscape:pagecheckerboard="true"
     inkscape:deskcolor="#d1d1d1"
     inkscape:document-units="mm"
     inkscape:zoom="23.404489"
     inkscape:cx="13.373503"
     inkscape:cy="9.5067231"
     inkscape:window-width="1920"
     inkscape:window-height="1017"
     inkscape:window-x="-8"
     inkscape:window-y="-8"
     inkscape:window-maximized="1"
     inkscape:current-layer="layer1" />
  <defs
     id="defs1" />
  <g
     inkscape:label="Camada 1"
     inkscape:groupmode="layer"
     id="layer1">
    <path
       opacity="1"
       fill="#ffffff"
       d="m 6.6128004,2.9351032 c 0,0.2067245 -0.17227,0.3686567 -0.36751,0.3686567 h -0.367509 l 0.0081,1.8398399 c 0,0.031018 -0.0022,0.062017 -0.0057,0.093028 V 5.421529 c 5e-6,0.2538137 -0.205572,0.4593851 -0.459383,0.4593851 H 5.2369581 c -0.012631,0 -0.025283,0 -0.037901,-0.00101 -0.016058,0.00101 -0.032158,0.00101 -0.048236,0.00101 H 4.7775724 4.5019404 c -0.2538122,0 -0.4593858,-0.2055714 -0.4593858,-0.4593851 V 5.1458983 4.4108805 C 4.0425546,4.2076022 3.8783225,4.04337 3.6750455,4.04337 H 2.940028 c -0.2032802,0 -0.3675089,0.1642322 -0.3675089,0.3675105 v 0.7350178 0.2756305 c 0,0.2538137 -0.205577,0.4593851 -0.459386,0.4593851 H 1.8375039 1.4711404 c -0.017235,0 -0.034436,-0.00101 -0.051678,-0.0022 -0.013774,0.00101 -0.027562,0.0022 -0.041345,0.0022 H 1.1943625 c -0.25381221,0 -0.45938581,-0.2055714 -0.45938581,-0.4593851 V 4.1352482 c 0,-0.010332 0,-0.021831 0.00119,-0.032158 V 3.3037591 H 0.36751229 C 0.16078809,3.3037591 3.3898757e-6,3.1429731 3.3898757e-6,2.9351024 3.3898757e-6,2.8317411 0.03443889,2.7398643 0.11484949,2.6594722 L 3.0594948,0.09265008 c 0.080392,-0.0803921 0.1722691,-0.0918768006 0.2526612,-0.0918768006 0.080394,0 0.172271,0.0229685006 0.241178,0.0803920006 L 6.4865154,2.6594719 c 0.09188,0.080392 0.137815,0.1722692 0.12633,0.2756303 z"
       id="path1-8"
       style="stroke-width:0.0114846" />
  </g>
</svg>
