<?xml version="1.0" encoding="UTF-8" standalone="no"?>
<!-- Created with Inkscape (http://www.inkscape.org/) -->

<svg
   width="25"
   height="28.6"
   viewBox="0 0 6.6145832 7.5670835"
   version="1.1"
   id="svg1"
   inkscape:version="1.3.2 (091e20e, 2023-11-25, custom)"
   sodipodi:docname="btn_del.svg"
   xmlns:inkscape="http://www.inkscape.org/namespaces/inkscape"
   xmlns:sodipodi="http://sodipodi.sourceforge.net/DTD/sodipodi-0.dtd"
   xmlns="http://www.w3.org/2000/svg"
   xmlns:svg="http://www.w3.org/2000/svg">
  <sodipodi:namedview
     id="namedview1"
     pagecolor="#000000"
     bordercolor="#000000"
     borderopacity="0.25"
     inkscape:showpageshadow="2"
     inkscape:pageopacity="0.0"
     inkscape:pagecheckerboard="true"
     inkscape:deskcolor="#d1d1d1"
     inkscape:document-units="mm"
     inkscape:zoom="23.404489"
     inkscape:cx="13.373503"
     inkscape:cy="12.924871"
     inkscape:window-width="1920"
     inkscape:window-height="1017"
     inkscape:window-x="-8"
     inkscape:window-y="-8"
     inkscape:window-maximized="1"
     inkscape:current-layer="layer1" />
  <defs
     id="defs1" />
  <g
     inkscape:label="Camada 1"
     inkscape:groupmode="layer"
     id="layer1">
    <path
       opacity="1"
       fill="#1e3050"
       d="M 1.9961871,0.26511922 1.8898817,0.47624877 H 0.47247052 C 0.21113812,0.47624877 3.1666667e-7,0.68738626 3.1666667e-7,0.94872051 3.1666667e-7,1.2100574 0.21113812,1.4211922 0.47247052,1.4211922 H 6.142114 c 0.261337,0 0.472469,-0.2111348 0.472469,-0.47247169 0,-0.26133425 -0.211132,-0.47247174 -0.472469,-0.47247174 H 4.7247031 L 4.6183971,0.26511922 c -0.07973,-0.1609408 -0.243615,-0.2613369 -0.42227,-0.2613369 h -1.77767 c -0.1786499,0 -0.3425407,0.1003961 -0.42227,0.2613369 z M 6.142114,1.8936587 H 0.47247052 l 0.3130116,5.005234 C 0.80910412,7.272442 1.119164,7.5633011 1.4927131,7.5633011 h 3.629163 c 0.3735439,0 0.6836019,-0.2908591 0.7072259,-0.6644084 z"
       id="path1-3"
       style="fill:#ffffff;stroke-width:0.0147647" />
  </g>
</svg>
