<?xml version="1.0" encoding="UTF-8" standalone="no"?>
<!-- Created with Inkscape (http://www.inkscape.org/) -->

<svg
   width="25"
   height="26.6"
   viewBox="0 0 6.6145832 7.0379168"
   version="1.1"
   id="svg1"
   inkscape:version="1.3.2 (091e20e, 2023-11-25, custom)"
   sodipodi:docname="btn_settings.svg"
   xmlns:inkscape="http://www.inkscape.org/namespaces/inkscape"
   xmlns:sodipodi="http://sodipodi.sourceforge.net/DTD/sodipodi-0.dtd"
   xmlns="http://www.w3.org/2000/svg"
   xmlns:svg="http://www.w3.org/2000/svg">
  <sodipodi:namedview
     id="namedview1"
     pagecolor="#000000"
     bordercolor="#000000"
     borderopacity="0.25"
     inkscape:showpageshadow="2"
     inkscape:pageopacity="0.0"
     inkscape:pagecheckerboard="true"
     inkscape:deskcolor="#d1d1d1"
     inkscape:document-units="mm"
     inkscape:zoom="23.404489"
     inkscape:cx="13.373503"
     inkscape:cy="12.924871"
     inkscape:window-width="1920"
     inkscape:window-height="1017"
     inkscape:window-x="-8"
     inkscape:window-y="-8"
     inkscape:window-maximized="1"
     inkscape:current-layer="layer1" />
  <defs
     id="defs1" />
  <g
     inkscape:label="Camada 1"
     inkscape:groupmode="layer"
     id="layer1">
    <path
       opacity="1"
       fill="#1e3050"
       d="m 6.5962456,2.294254 c 0.04386,0.119245 0.0068,0.2522034 -0.08772,0.3371849 l -0.593508,0.5400517 c 0.01509,0.1137682 0.02329,0.2302721 0.02329,0.3481493 0,0.1178825 -0.0082,0.2343917 -0.02329,0.3481546 l 0.593508,0.5400516 c 0.09458,0.084982 0.131586,0.21794 0.08772,0.337185 -0.06031,0.163113 -0.132958,0.3193733 -0.216568,0.4701487 l -0.06442,0.1110245 c -0.09047,0.1507728 -0.191896,0.293325 -0.302919,0.4276513 -0.08087,0.09869 -0.2152,0.1315879 -0.33582,0.093207 L 4.9130467,5.6044533 C 4.7293748,5.7456324 4.5265137,5.8635122 4.3099462,5.9526053 L 4.1386084,6.7352666 c -0.027414,0.1247325 -0.1233618,0.2234221 -0.2494645,0.2439776 -0.1891544,0.031533 -0.3837917,0.047979 -0.5825382,0.047979 -0.1987513,0 -0.3933886,-0.016431 -0.5825426,-0.047979 C 2.5979603,6.9586861 2.5020126,6.8599991 2.4745986,6.7352666 L 2.3032655,5.9526053 C 2.0866974,5.8635122 1.8838364,5.7456324 1.700165,5.6044533 L 0.93806529,5.8484336 c -0.1206204,0.038383 -0.2549475,0.00392 -0.3358198,-0.093202 C 0.49122209,5.6209025 0.38979169,5.4783529 0.29932639,5.3275775 L 0.23490229,5.2165477 C 0.15129259,5.0657749 0.07864409,4.9095146 0.01833439,4.746407 -0.02552761,4.6271566 0.01149229,4.4942035 0.10605779,4.4092193 l 0.5935083,-0.540049 C 0.68447959,3.7540316 0.67627749,3.6375224 0.67627749,3.5196399 c 0,-0.1178772 0.00824,-0.2343811 0.023289,-0.3481493 L 0.10605779,2.6314389 C 0.01148329,2.5464574 -0.02552761,2.413499 0.01833439,2.294254 0.07864409,2.1311436 0.15129259,1.9748834 0.23490229,1.8241079 l 0.0644241,-0.1110271 c 0.0904653,-0.1507755 0.1918957,-0.2933224 0.3029191,-0.4276513 0.0808723,-0.09869 0.2151994,-0.1315879 0.3358198,-0.093207 L 1.7015334,1.4348344 C 1.8852051,1.2936527 2.0880664,1.1757782 2.3046339,1.0866798 L 2.4759715,0.3040185 C 2.5033858,0.17928863 2.5993332,0.08059905 2.725436,0.06004092 c 0.1891541,-0.0329142 0.3837913,-0.0493474 0.5825379,-0.0493474 0.1987513,0 0.3933885,0.0164306 0.5825426,0.0479742 0.1261028,0.0205846 0.222051,0.1192477 0.2494645,0.24398022 L 4.3113141,1.0853092 c 0.2165683,0.089096 0.4194291,0.2069756 0.6031007,0.348152 l 0.7634728,-0.242607 c 0.12062,-0.03838 0.254947,-0.00392 0.335815,0.093207 0.111028,0.1343236 0.212459,0.2768732 0.302924,0.4276486 l 0.06442,0.1110272 c 0.08362,0.1507728 0.156258,0.307033 0.216568,0.4701434 z M 3.3079739,4.6161896 a 1.0965474,1.0965474 0 1 0 0,-2.1930942 1.0965474,1.0965474 0 1 0 0,2.1930942 z"
       id="path1-74"
       style="fill:#ffffff;stroke-width:0.0137068" />
  </g>
</svg>
