<?xml version="1.0" encoding="UTF-8" standalone="no"?>
<!-- Created with Inkscape (http://www.inkscape.org/) -->

<svg
   width="25"
   height="22.23"
   viewBox="0 0 6.6145832 5.8816874"
   version="1.1"
   id="svg1"
   inkscape:version="1.3.2 (091e20e, 2023-11-25, custom)"
   sodipodi:docname="btn_toggle.svg"
   xmlns:inkscape="http://www.inkscape.org/namespaces/inkscape"
   xmlns:sodipodi="http://sodipodi.sourceforge.net/DTD/sodipodi-0.dtd"
   xmlns="http://www.w3.org/2000/svg"
   xmlns:svg="http://www.w3.org/2000/svg">
  <sodipodi:namedview
     id="namedview1"
     pagecolor="#000000"
     bordercolor="#000000"
     borderopacity="0.25"
     inkscape:showpageshadow="2"
     inkscape:pageopacity="0.0"
     inkscape:pagecheckerboard="true"
     inkscape:deskcolor="#d1d1d1"
     inkscape:document-units="mm"
     inkscape:zoom="23.404489"
     inkscape:cx="13.373503"
     inkscape:cy="9.5067231"
     inkscape:window-width="1920"
     inkscape:window-height="1017"
     inkscape:window-x="-8"
     inkscape:window-y="-8"
     inkscape:window-maximized="1"
     inkscape:current-layer="layer1" />
  <defs
     id="defs1" />
  <g
     inkscape:label="Camada 1"
     inkscape:groupmode="layer"
     id="layer1">
    <path
       opacity="1"
       fill="#1e3050"
       d="M 2.7166667e-7,0.5784925 C 2.7166667e-7,0.31715906 0.21113307,0.10602156 0.47247046,0.10602156 H 6.1421141 c 0.261332,0 0.472469,0.2111375 0.472469,0.47247094 0,0.2613377 -0.211137,0.4724688 -0.472469,0.4724688 H 0.47247046 C 0.21113307,1.0509613 2.7166667e-7,0.8398302 2.7166667e-7,0.5784925 Z m 0,2.36235 C 2.7166667e-7,2.6795112 0.21113307,2.4683739 0.47247046,2.4683739 H 6.1421141 c 0.261332,0 0.472469,0.2111373 0.472469,0.4724686 0,0.2613377 -0.211137,0.472471 -0.472469,0.472471 H 0.47247046 C 0.21113307,3.4133135 2.7166667e-7,3.2021802 2.7166667e-7,2.9408425 Z M 6.6145831,5.3031949 c 0,0.2613377 -0.211137,0.4724709 -0.472469,0.4724709 H 0.47247046 C 0.21113307,5.7756658 2.7166667e-7,5.5645326 2.7166667e-7,5.3031949 2.7166667e-7,5.0418614 0.21113307,4.8307237 0.47247046,4.8307237 H 6.1421141 c 0.261332,0 0.472469,0.2111377 0.472469,0.4724712 z"
       id="path1-6"
       style="fill:#ffffff;stroke-width:0.0147647" />
  </g>
</svg>
